[IMG]http://padamhosting.com/out.php/i50915_victorlove1231.png[/IMG]

INFO:
[code]
General

Format                           : Matroska
File size                        : 1.51 GiB
Duration                         : 2h 3mn
Overall bit rate                 : 1 753 Kbps
Encoded date                     : UTC 2011-04-08 14:34:49
Writing application              : mkvmerge v4.6.0 ('Still Crazy After All These Years') built on Mar 10 2011 02:50:32
Writing library                  : libebml v1.2.0 + libmatroska v1.1.0

Video
ID                               : 1
Format                           : AVC
Format/Info                      : Advanced Video Codec
Format profile                   : High@L4.1
Format settings, CABAC           : Yes
Format settings, ReFrames        : 4 frames
Muxing mode                      : Header stripping
Codec ID                         : V_MPEG4/ISO/AVC
Duration                         : 2h 3mn
Bit rate                         : 1 302 Kbps
Width                            : 640 pixels
Height                           : 336 pixels
Display aspect ratio             : 1.905
Frame rate                       : 29.970 fps
Color space                      : YUV
Chroma subsampling               : 4:2:0
Bit depth                        : 8 bits
Scan type                        : Progressive
Bits/(Pixel*Frame)               : 0.202
Stream size                      : 1.10 GiB (72%)
Writing library                  : x264 core 114 r1913 5fd3dce
Encoding settings                : cabac=1 / ref=3 / deblock=1:0:0 / analyse=0x3:0x113 / me=hex / subme=7 / psy=1 / psy_rd=1.00:0.00 / mixed_ref=1 / me_range=16 / chroma_me=1 / trellis=1 / 8x8dct=1 / cqm=0 / deadzone=21,11 / fast_pskip=1 / chroma_qp_offset=-2 / threads=3 / sliced_threads=0 / nr=0 / decimate=1 / interlaced=0 / constrained_intra=0 / bframes=3 / b_pyramid=2 / b_adapt=1 / b_bias=0 / direct=1 / weightb=1 / open_gop=0 / weightp=2 / keyint=250 / keyint_min=25 / scenecut=40 / intra_refresh=0 / rc_lookahead=40 / rc=2pass / mbtree=1 / bitrate=1302 / ratetol=1.0 / qcomp=0.60 / qpmin=0 / qpmax=69 / qpstep=4 / cplxblur=20.0 / qblur=0.5 / vbv_maxrate=50000 / vbv_bufsize=50000 / nal_hrd=none / ip_ratio=1.40 / aq=1:1.00


Audio
ID                               : 3
Format                           : AC-3
Format/Info                      : Audio Coding 3
Mode extension                   : CM (complete main)
Muxing mode                      : Header stripping
Codec ID                         : A_AC3
Duration                         : 2h 3mn
Bit rate mode                    : Constant
Bit rate                         : 448 Kbps
Channel(s)                       : 6 channels
Channel positions                : Front: L C R, Side: L R, LFE
Sampling rate                    : 48.0 KHz
Bit depth                        : 16 bits
Compression mode                 : Lossy
Delay relative to video          : 3s 503ms
Stream size                      : 396 MiB (26%)
Language                         : Malayalam
Text
ID                               : 2
Format                           : VobSub
Muxing mode                      : zlib
Codec ID                         : S_VOBSUB
Codec ID/Info                    : The same subtitle format used on DVDs
Language                         : English


[/code]

Screens:

[img]http://pic.phyrefile.com/s/sh/shahaz/2011/04/08/1.jpg[/img]
[img]http://pic.phyrefile.com/s/sh/shahaz/2011/04/08/2.jpg[/img]
[img]http://pic.phyrefile.com/s/sh/shahaz/2011/04/08/3.jpg[/img]
[img]http://pic.phyrefile.com/s/sh/shahaz/2011/04/08/4.jpg[/img]
[img]http://pic.phyrefile.com/s/sh/shahaz/2011/04/08/5.jpg[/img]
[img]http://pic.phyrefile.com/s/sh/shahaz/2011/04/08/6.jpg[/img]
[img]http://pic.phyrefile.com/s/sh/shahaz/2011/04/08/7.jpg[/img]
[img]http://pic.phyrefile.com/s/sh/shahaz/2011/04/08/8.jpg[/img]
[img]http://pic.phyrefile.com/s/sh/shahaz/2011/04/08/9.jpg[/img]
[img]http://pic.phyrefile.com/s/sh/shahaz/2011/04/08/10.jpg[/img]
